<?xml version="1.0" encoding="utf-8"?>
<svg viewBox="0 0 26 24" fill="none" xmlns="http://www.w3.org/2000/svg">
  <g clip-path="url(#a)" fill="#fff">
    <path d="M 25.973 3.54 L 25.973 0 L 0.027 0 L 0.027 3.54 L 11.574 3.54 C 9.402 4.867 7.453 6.527 5.798 8.46 L 0 8.46 L 0 12 L 3.28 12 C 1.148 15.64 0.025 19.782 0.027 24 L 3.592 24 C 3.592 19.52 5.054 15.372 7.522 11.998 L 14.257 11.998 C 10.797 14.836 8.589 19.131 8.589 23.926 L 12.153 23.926 C 12.153 17.348 17.539 11.998 24.161 11.998 L 25.943 11.998 L 25.943 8.457 L 10.815 8.457 C 14.545 5.278 19.287 3.533 24.188 3.538 L 25.971 3.538 L 25.973 3.541 L 25.973 3.54 Z"/>
  </g>
  <defs>
    <clipPath id="a">
      <path fill="#fff" d="M0 0h128.816v24H0z"/>
    </clipPath>
  </defs>
</svg>